<svg width="1200" height="320" viewBox="0 0 1200 320" fill="none" xmlns="http://www.w3.org/2000/svg" role="img" aria-labelledby="title desc">
  <title id="title">Alphabet Group Compass A Signature Logo - Transparent-Dark Background</title>
  <desc id="desc">Compass-inspired Alphabet Group logo adapted for a transparent-dark background with accessible text contrast.</desc>
  <defs>
    <filter id="markShadow" x="34" y="36" width="235" height="258" filterUnits="userSpaceOnUse" color-interpolation-filters="sRGB">
      <feFlood flood-opacity="0" result="BackgroundImageFix"/>
      <feColorMatrix in="SourceAlpha" type="matrix" values="0 0 0 0 0 0 0 0 0 0 0 0 0 0 0 0 0 0 127 0" result="hardAlpha"/>
      <feOffset dy="10"/>
      <feGaussianBlur stdDeviation="16"/>
      <feColorMatrix type="matrix" values="0 0 0 0 0.0745 0 0 0 0 0.7216 0 0 0 0 1 0 0 0 0.16 0"/>
      <feBlend mode="normal" in2="BackgroundImageFix" result="shadow"/>
      <feBlend mode="normal" in="SourceGraphic" in2="shadow" result="shape"/>
    </filter>
  </defs>
  
  <g filter="url(#markShadow)">
    <path d="M143.9 73.5L66.8 260.2" stroke="#19B8FF" stroke-width="22" stroke-linecap="round"/>
    <path d="M156.1 73.5L233.2 260.2" stroke="#F5F7FA" stroke-width="22" stroke-linecap="round"/>
    <path d="M90.7 193.1H209.3" stroke="#00D2A8" stroke-width="16" stroke-linecap="round"/>
    <path d="M122.5 193.1L150 139.8L177.5 193.1" stroke="#07111D" stroke-width="11" stroke-linecap="round" stroke-linejoin="round"/>
    <circle cx="150" cy="83" r="28" fill="#D6A84A"/>
    <circle cx="150" cy="83" r="20" fill="none" stroke="#FFE6A3" stroke-width="5"/>
    <circle cx="150" cy="83" r="14" fill="#F9FBFD"/>
    <circle cx="150" cy="83" r="6" fill="#0B1118"/>
    <path d="M64 236C93.5 255.3 129.1 264.5 165.6 259.2C196.5 254.7 223.6 240.9 244.5 221.1" stroke="#6E7B8E" stroke-width="5" stroke-linecap="round" stroke-dasharray="1 15"/>
    <path d="M57.8 249.3L67.1 228.2L80.2 247.2" fill="#19B8FF"/>
    <path d="M231.4 248.7L242.8 226.3L257.2 246.7" fill="#F5F7FA"/>
    <path d="M150 111L150 236" stroke="#D6A84A" stroke-width="4" stroke-linecap="round"/>
    <path d="M139 223L150 248L161 223" fill="#D6A84A"/>
  </g>
  <g>
    <text x="320" y="141" fill="#F7FAFF" font-family="Aptos Display, Segoe UI, Helvetica Neue, Arial, sans-serif" font-size="68" font-weight="700" letter-spacing="-0.2">Alphabet</text>
    <text x="324" y="196" fill="#B8C4D6" font-family="Aptos, Segoe UI, Helvetica Neue, Arial, sans-serif" font-size="34" font-weight="600" letter-spacing="5.8">GROUP</text>
    <path d="M326 221H454" stroke="#19B8FF" stroke-width="5" stroke-linecap="round"/>
    <path d="M470 221H526" stroke="#00D2A8" stroke-width="5" stroke-linecap="round"/>
    <path d="M542 221H574" stroke="#D6A84A" stroke-width="5" stroke-linecap="round"/>
  </g>
</svg>
